<svg width="100" height="48" viewBox="0 0 100 48" fill="none" xmlns="http://www.w3.org/2000/svg">
<path fill-rule="evenodd" clip-rule="evenodd" d="M100 43.8167V4.12524C99.7295 2.0119 98.0819 0.328619 95.9838 0H4.05524C1.75762 0.36 0 2.34429 0 4.73905V43.2028C0 45.8524 2.1519 48 4.80619 48H95.2333C97.6791 48 99.6981 46.1762 100 43.8167Z" fill="#161616"/>
<path opacity="0.4" fill-rule="evenodd" clip-rule="evenodd" d="M4.28564 0.0168457H95.7142V16.8093H4.28564V0.0168457Z" fill="#161616"/>
<path fill-rule="evenodd" clip-rule="evenodd" d="M13.8096 9.47632H21.3677V38.5717H13.8096V9.47632Z" fill="white"/>
<path fill-rule="evenodd" clip-rule="evenodd" d="M37.4868 9.47632L35.7363 23.0688L34.6535 15.6773C34.3378 13.305 34.0359 11.2378 33.7477 9.47632H23.9487V38.5717H30.5687L30.5925 19.3606L33.3787 38.5716H38.0939L40.7373 18.933L40.7611 38.5716H47.3602V9.47632H37.4868Z" fill="white"/>
<path fill-rule="evenodd" clip-rule="evenodd" d="M59.1796 14.7126C59.4782 14.8855 59.6696 15.1583 59.753 15.5283C59.8363 15.8993 59.8787 16.7421 59.8787 18.0574V29.3369C59.8787 31.2741 59.753 32.4603 59.502 32.8965C59.251 33.3336 58.582 33.5512 57.4959 33.5512V14.4526C58.3191 14.4526 58.881 14.5393 59.1796 14.7126ZM59.1015 38.5717C60.912 38.5717 62.2672 38.4732 63.1672 38.2755C64.0668 38.0784 64.822 37.7312 65.4344 37.235C66.0458 36.7388 66.4744 36.0513 66.7206 35.1712C66.9663 34.2926 67.1125 32.5483 67.1125 29.9407V19.7225C67.1125 16.9706 67.0048 15.1254 66.8372 14.1863C66.6692 13.2477 66.2496 12.3954 65.5777 11.6296C64.9063 10.8639 63.9253 10.3139 62.6358 9.97916C61.3468 9.64439 59.242 9.47632 55.5839 9.47632H49.9448V38.5716H59.1015V38.5717Z" fill="white"/>
<path fill-rule="evenodd" clip-rule="evenodd" d="M79.5168 31.5116C79.5168 32.9197 79.4468 33.8093 79.3073 34.1793C79.1673 34.5497 78.5587 34.7359 78.0973 34.7359C77.6473 34.7359 77.3473 34.5573 77.195 34.1987C77.0431 33.8407 76.9678 33.0231 76.9678 31.745V24.0558C76.9678 22.7301 77.0344 21.904 77.1682 21.5749C77.3016 21.2473 77.593 21.0825 78.0425 21.0825C78.5035 21.0825 79.1221 21.2697 79.2801 21.6458C79.4378 22.022 79.5168 22.8254 79.5168 24.0549V31.5116ZM69.6868 9.47632V38.5717H76.4911L76.9621 36.7178C77.5773 37.4631 78.2559 38.0221 78.9983 38.3945C79.7402 38.7668 80.8483 38.9526 81.7049 38.9526C82.8997 38.9526 83.9312 38.6388 84.8002 38.0121C85.6688 37.385 86.2212 36.6435 86.4569 35.7893C86.692 34.9345 86.8097 33.6359 86.8097 31.8911V23.7283C86.8097 21.9716 86.7702 20.8249 86.692 20.2873C86.6131 19.7497 86.3816 19.2002 85.9959 18.6387C85.6097 18.0778 85.0492 17.6416 84.313 17.3306C83.5773 17.0192 82.7097 16.864 81.7088 16.864C80.8402 16.864 79.7269 17.0368 78.9849 17.3797C78.243 17.7225 77.5707 18.243 76.9678 18.9406V9.47632H69.6868Z" fill="white"/>
</svg>
