<svg width="235" height="235" viewBox="0 0 235 235" fill="none" xmlns="http://www.w3.org/2000/svg">
<path d="M117.5 235C182.393 235 235 182.393 235 117.5C235 52.6065 182.393 0 117.5 0C52.6065 0 0 52.6065 0 117.5C0 182.393 52.6065 235 117.5 235Z" fill="black"/>
<path d="M163.869 92.9874L165.322 99.2834C165.322 99.2834 165.79 100.393 166.275 99.2834C166.743 98.1742 168.696 93.6748 171.462 93.831C174.227 93.9873 175.789 96.9869 175.836 100.018C175.883 103.049 175.07 104.767 174.727 105.111C174.383 105.454 173.992 105.22 174.227 104.377C174.461 103.533 175.102 98.7366 172.508 97.9242C169.931 97.1119 167.665 103.111 167.665 103.111C167.665 103.111 166.509 105.486 166.634 108.064C166.759 110.641 168.868 119.906 169.134 121.327C169.415 122.749 170.321 127.686 169.524 138.809C168.978 146.418 166.931 151.839 164.15 157.76C163.322 159.525 159.651 166.399 154.526 169.837C151.308 171.992 154.151 170.665 154.604 170.43C158.416 168.368 163.603 164.259 167.337 157.057C171.055 149.886 172.321 143.449 172.68 138.997C173.821 125.171 171.962 118.593 171.727 116.859C171.493 115.125 174.852 112.11 176.398 108.751C177.945 105.392 179.523 100.799 177.789 93.6904C176.055 86.5664 170.399 88.1912 170.399 88.1912C170.399 88.1912 167.259 88.1599 163.869 92.9874Z" fill="white"/>
<path d="M71.0062 92.9877L69.5533 99.2837C69.5533 99.2837 69.0846 100.393 68.6003 99.2837C68.1316 98.1745 66.1787 93.6751 63.4134 93.8313C60.6482 93.9875 59.0859 96.9871 59.039 100.018C58.9922 103.049 59.8046 104.767 60.1483 105.111C60.492 105.455 60.8825 105.22 60.6482 104.377C60.4138 103.533 59.7733 98.7369 62.3667 97.9245C64.9445 97.1121 67.2098 103.111 67.2098 103.111C67.2098 103.111 68.3659 105.486 68.2409 108.064C68.1159 110.642 66.0068 119.906 65.7413 121.328C65.46 122.749 64.5539 127.686 65.3507 138.81C65.8975 146.418 67.9441 151.839 70.725 157.76C71.553 159.526 75.2244 166.4 80.3487 169.837C83.567 171.993 80.7236 170.665 80.2706 170.43C76.4586 168.368 71.2718 164.259 67.5379 157.057C63.8196 149.886 62.5542 143.45 62.1949 138.997C61.0544 125.171 62.9135 118.594 63.1479 116.859C63.3822 115.125 60.0233 112.11 58.4766 108.751C56.9299 105.392 55.352 100.799 57.0862 93.6907C58.8203 86.5823 64.4758 88.1914 64.4758 88.1914C64.4758 88.1914 67.616 88.1602 71.0062 92.9877Z" fill="white"/>
<path d="M72.3498 85.473C73.2559 81.6454 74.6932 77.974 76.3961 74.4276C79.2707 68.4128 82.9733 62.9135 87.6915 58.0392C96.5653 48.8216 108.829 43.4942 121.718 44.8222C140.185 46.3532 154.042 61.32 160.01 77.9115C160.885 80.3799 161.682 82.8796 162.15 85.4574C162.182 85.5824 162.103 85.723 161.978 85.7542C161.869 85.7699 161.76 85.7074 161.729 85.6136C159.932 80.8486 157.526 76.2867 154.761 72.0217C148.621 62.4761 139.856 54.0084 128.78 50.7276C114.891 46.5563 100.549 50.8839 90.1443 60.6951C84.52 65.8662 79.9269 72.131 76.1774 78.7708C74.9432 81.0049 73.7714 83.2858 72.7872 85.6292C72.7403 85.7386 72.5997 85.8011 72.4904 85.7542C72.3654 85.7074 72.3029 85.5824 72.3498 85.473Z" fill="white"/>
<path d="M145.137 156.573C141.481 151.605 135.341 145.777 135.341 145.777C135.341 145.777 133.998 144.106 134.076 141.684C134.154 139.263 135.482 139.606 135.576 137.653C135.685 135.435 134.748 132.81 130.467 129.889C126.608 127.249 121.343 127.405 120.671 127.78C120.109 128.092 119.031 128.608 117.578 128.701C116.219 128.78 115.047 128.092 114.485 127.78C113.797 127.405 108.689 127.249 104.845 129.889C100.58 132.826 99.6274 135.451 99.7367 137.653C99.8305 139.591 101.158 139.247 101.237 141.684C101.315 144.121 99.9711 145.777 99.9711 145.777C99.9711 145.777 93.8313 151.605 90.1755 156.573C84.9887 163.619 92.4877 169.587 99.2524 166.884C111.079 162.134 124.233 162.134 136.076 166.884C142.825 169.587 150.324 163.603 145.137 156.573ZM114.719 145.012C114.25 144.856 113.501 143.981 112.423 143.309C111.36 142.637 108.001 141.497 106.095 140.028C104.205 138.56 104.377 133.42 109.142 135.997C115.469 139.419 116.656 142.84 116.656 142.84C117.406 145.449 115.188 145.184 114.719 145.012ZM129.123 140.044C127.233 141.512 123.859 142.653 122.796 143.325C121.734 143.996 120.984 144.871 120.5 145.027C120.031 145.184 117.812 145.465 118.562 142.856C118.562 142.856 119.75 139.434 126.077 136.013C130.842 133.435 131.029 138.575 129.123 140.044Z" fill="white"/>
<path d="M117.641 199.067C149.589 198.755 148.824 169.196 147.621 165.072C146.293 168.165 142.7 171.821 134.701 168.649C126.561 165.4 120.75 165.54 117.297 165.54C113.844 165.54 107.908 165.4 100.268 168.649C92.3471 172.024 88.6913 168.181 87.3478 165.072C86.176 169.196 85.6917 198.755 117.641 199.067Z" fill="white"/>
<path d="M117.687 126.483C118.531 126.467 118.687 126.171 119.672 125.952C122.249 125.389 126.889 125.28 130.717 127.545C137.716 131.685 137.888 136.56 137.888 136.56C137.888 136.56 138.013 139.091 136.076 140.872C135.451 141.434 136.029 142.528 136.826 142.262C137.419 142.059 139.685 140.013 140.559 137.919C141.434 135.826 141.637 134.841 141.872 133.06C142.122 131.107 142.387 130.42 143.965 130.373C146.855 130.279 155.151 125.358 157.963 116.359C161.057 106.454 159.416 95.8934 149.668 91.2221C141.2 87.1602 132.045 90.8784 129.748 92.3938C128.233 93.4093 127.311 95.1591 126.593 95.8309C126.249 96.159 125.03 96.862 124.187 96.7995C123.343 96.7526 121.14 96.862 119.094 98.1899C118.703 98.4399 118.062 99.2679 117.656 99.2679C117.25 99.2679 116.609 98.4399 116.219 98.1899C114.172 96.862 111.969 96.7526 111.126 96.7995C110.282 96.8464 109.064 96.1433 108.72 95.8309C108.017 95.1591 107.095 93.3937 105.564 92.3938C103.283 90.8784 94.1281 87.1602 85.6448 91.2221C75.9117 95.8934 74.2713 106.454 77.3491 116.359C80.1612 125.358 88.457 130.279 91.3472 130.373C92.9251 130.42 93.1907 131.107 93.4407 133.06C93.675 134.841 93.8781 135.826 94.753 137.919C95.6279 140.013 97.8932 142.059 98.4869 142.262C99.268 142.543 99.8461 141.45 99.2368 140.872C97.2995 139.091 97.4245 136.56 97.4245 136.56C97.4245 136.56 97.5807 131.67 104.595 127.545C108.439 125.28 113.079 125.389 115.641 125.952C116.688 126.155 116.844 126.467 117.687 126.483ZM117.687 116.078C110.891 116.125 108.845 118.875 105.283 119.921C99.6117 121.609 93.7219 120.906 90.6754 118.562C86.5666 115.406 86.0823 109.064 90.941 105.376C95.7841 101.689 102.049 104.611 103.455 105.751C105.767 107.642 106.236 109.907 109.079 111.063C111.923 112.219 115.797 112.094 117.687 112.11C119.562 112.094 123.437 112.219 126.296 111.063C129.139 109.907 129.623 107.657 131.92 105.751C133.326 104.595 139.575 101.674 144.434 105.376C149.277 109.064 148.808 115.422 144.699 118.562C141.653 120.906 135.763 121.609 130.092 119.921C126.53 118.875 124.468 116.125 117.687 116.078Z" fill="white"/>
</svg>
