<svg width="21" height="15" viewBox="0 0 21 15" fill="none" xmlns="http://www.w3.org/2000/svg">
<path d="M6.77753 6.98477C7.78885 6.98477 8.60802 7.75007 8.58948 8.68543C8.58948 9.6208 7.79054 10.3861 6.77753 10.3861C5.78307 10.3861 4.9639 9.6208 4.9639 8.68543C4.9639 7.75007 5.76453 6.98477 6.77753 6.98477ZM13.2635 6.98477C14.2765 6.98477 15.0771 7.75007 15.0771 8.68543C15.0771 9.6208 14.2765 10.3861 13.2635 10.3861C12.269 10.3861 11.4515 9.6208 11.4515 8.68543C11.4515 7.75007 12.2505 6.98477 13.2635 6.98477ZM14.9439 15C18.7752 14.8759 20.25 12.2857 20.25 12.2857C20.25 6.53579 17.752 1.87427 17.752 1.87427C15.2575 -0.0525789 12.8808 0.000141916 12.8808 0.000141916L12.6381 0.285853C15.5861 1.21442 16.9548 2.55454 16.9548 2.55454C15.3452 1.63956 13.5713 1.05683 11.7364 0.84027C10.5724 0.707625 9.39673 0.719047 8.23552 0.874283C8.13101 0.874283 8.04337 0.89299 7.94055 0.909997C7.33376 0.964418 5.85891 1.19571 4.00483 2.03584C3.36432 2.33855 2.98171 2.55454 2.98171 2.55454C2.98171 2.55454 4.42116 1.14299 7.54108 0.214425L7.36747 0.000141916C7.36747 0.000141916 4.99255 -0.0525794 2.49627 1.87597C2.49627 1.87597 0 6.53579 0 12.2857C0 12.2857 1.4563 14.8742 5.28752 15C5.28752 15 5.92802 14.1973 6.45054 13.5187C4.24754 12.8385 3.41658 11.4099 3.41658 11.4099C3.41658 11.4099 3.5885 11.5357 3.90033 11.7143C3.91718 11.7313 3.93404 11.75 3.96943 11.767C4.02168 11.8045 4.07394 11.8215 4.12619 11.8572C4.55937 12.1072 4.99255 12.3027 5.39034 12.4643C6.10163 12.75 6.95114 13.0357 7.94055 13.233C9.42267 13.5261 10.9465 13.5319 12.4308 13.25C13.2954 13.0943 14.1388 12.8369 14.9439 12.483C15.5507 12.25 16.2266 11.9099 16.9379 11.4286C16.9379 11.4286 16.0716 12.8929 13.7995 13.5544C14.3203 14.233 14.9456 15 14.9456 15H14.9439Z" fill="white"/>
</svg>
