<svg width="19" height="15" viewBox="0 0 19 15" fill="none" xmlns="http://www.w3.org/2000/svg">
<path d="M18.157 1.78066C17.4769 2.0863 16.7558 2.28702 16.0173 2.37619C16.7957 1.90324 17.3782 1.1589 17.6564 0.281881C16.9259 0.723552 16.1251 1.03308 15.2904 1.20052C14.7298 0.591031 13.9866 0.186817 13.1765 0.0507149C12.3665 -0.0853868 11.5348 0.0542504 10.8109 0.447918C10.087 0.841585 9.51133 1.46723 9.17347 2.22758C8.83562 2.98793 8.75448 3.84039 8.94266 4.65243C7.46137 4.57699 6.01225 4.18589 4.68938 3.5045C3.36652 2.82312 2.19948 1.86669 1.26403 0.697305C0.932917 1.27514 0.758914 1.93201 0.759845 2.60065C0.759845 3.91299 1.41725 5.07237 2.41672 5.75117C1.82524 5.73225 1.24678 5.56996 0.729558 5.27782V5.32489C0.729737 6.1989 1.02741 7.04597 1.57211 7.72245C2.11681 8.39893 2.87501 8.8632 3.71816 9.03654C3.16909 9.18772 2.59337 9.21001 2.03457 9.10171C2.27229 9.85403 2.73563 10.512 3.3597 10.9834C3.98378 11.4549 4.73734 11.7162 5.51489 11.7309C4.74211 12.3476 3.85729 12.8034 2.911 13.0724C1.96472 13.3413 0.97553 13.4182 0 13.2985C1.70292 14.4112 3.68529 15.0019 5.70997 15C12.5628 15 16.3104 9.23204 16.3104 4.22976C16.3104 4.06685 16.3059 3.90213 16.2988 3.74103C17.0283 3.20538 17.6578 2.54184 18.1579 1.78157L18.157 1.78066Z" fill="white"/>
</svg>
